<?xml version="1.0" encoding="utf-8"?>
<svg version="1.2" baseProfile="tiny" id="Layer_1" xmlns="http://www.w3.org/2000/svg" xmlns:xlink="http://www.w3.org/1999/xlink"
	 x="0px" y="0px" viewBox="0 0 24 24" xml:space="preserve">
<path fill="#1C75BC" d="M9.6,13l10-10c4.5-1.9,2,2,2,2l-9,11L9.6,13z"/>
<path fill="#1C75BC" d="M0.4,19c0.1-0.4,2.4-0.2,3-1.1c0.2-0.2,0.1-0.3,0.4-0.9c0.1-0.1,0.4-0.7,0.7-1.1c0.2-0.3,0.9-1.2,2.1-1.6
	c0.2-0.1,1.1-0.4,2.1-0.1c1.5,0.4,3.1,1.9,2.9,3.7c-0.2,2.5-3,3.1-3.2,3.1c-1.5,0.4-3-0.3-5.1-0.8C3,20.2,0.3,19.5,0.4,19z"/>
</svg>
