<?xml version="1.0" encoding="iso-8859-1"?>
<!-- Generator: Adobe Illustrator 19.0.0, SVG Export Plug-In . SVG Version: 6.00 Build 0)  -->
<svg version="1.1" id="Capa_1" xmlns="http://www.w3.org/2000/svg" xmlns:xlink="http://www.w3.org/1999/xlink" x="0px" y="0px"
	 viewBox="0 0 512 512" style="enable-background:new 0 0 512 512;" xml:space="preserve">
<g>
	<g>
		<path d="M497,444.792H262.501c7.922-7.923,214.802-214.802,223.18-223.18c17.546-17.545,17.546-46.094,0-63.64L378.108,50.399
			c-17.586-17.587-46.052-17.589-63.64,0L95.674,269.193c-0.002,0.001-0.003,0.003-0.005,0.004
			c-0.002,0.001-0.003,0.003-0.005,0.005l-68.77,68.77c-17.588,17.587-17.589,46.051,0,63.64l43.18,43.18H15
			c-8.284,0-15,6.716-15,15s6.716,15,15,15c7.19,0,477.025,0,482,0c8.284,0,15-6.716,15-15S505.284,444.792,497,444.792z
			 M335.681,71.612c5.849-5.849,15.365-5.849,21.214,0l40.491,40.491L181.157,333.46l-53.666-53.658L335.681,71.612z
			 M220.074,444.792H112.501v0l-64.394-64.393c-5.849-5.849-5.849-15.365,0-21.214l58.169-58.169l128.797,128.777L220.074,444.792z
			 M202.372,354.672L418.6,133.317l45.868,45.868c5.849,5.849,5.849,15.365,0,21.214l-208.181,208.18L202.372,354.672z"/>
	</g>
</g>
<g>
</g>
<g>
</g>
<g>
</g>
<g>
</g>
<g>
</g>
<g>
</g>
<g>
</g>
<g>
</g>
<g>
</g>
<g>
</g>
<g>
</g>
<g>
</g>
<g>
</g>
<g>
</g>
<g>
</g>
</svg>
