<?xml version="1.0" encoding="utf-8"?>
<!-- Generator: Adobe Illustrator 19.2.1, SVG Export Plug-In . SVG Version: 6.00 Build 0)  -->
<svg version="1.2" baseProfile="tiny" id="Layer_1" xmlns="http://www.w3.org/2000/svg" xmlns:xlink="http://www.w3.org/1999/xlink"
	 x="0px" y="0px" viewBox="0 0 20 20" xml:space="preserve">
<g id="XMLID_1_">
	<g>
		<path fill="#231F20" d="M9.5,12.5v2.5l-2.2,2.3c-0.2,0.2-0.4,0.3-0.7,0.3H2.5c-0.5,0-1-0.4-1-1v-2.1c0-0.3,0.1-0.5,0.3-0.7L4,11.5
			l0,0h4.5C9.1,11.5,9.5,11.9,9.5,12.5z"/>
	</g>
	<g>
		<path fill="none" stroke="#231F20" stroke-miterlimit="10" d="M4,11.5l-2.2,2.2c-0.2,0.2-0.3,0.4-0.3,0.7v2.1c0,0.5,0.4,1,1,1h4.1
			c0.3,0,0.5-0.1,0.7-0.3l2.2-2.3L18.2,6c0.2-0.2,0.3-0.4,0.3-0.7V3.4c0-0.5-0.4-1-1-1h-4.1c-0.3,0-0.5,0.1-0.7,0.3L4,11.5z"/>
		<path fill="none" stroke="#231F20" stroke-miterlimit="10" d="M4,11.5h4.5c0.5,0,1,0.4,1,1v2.5V15"/>
	</g>
</g>
</svg>
