<?xml version='1.0' encoding='iso-8859-1'?>
<svg version="1.1" xmlns="http://www.w3.org/2000/svg" viewBox="0 0 470 470" xmlns:xlink="http://www.w3.org/1999/xlink" enable-background="new 0 0 470 470">
  <g>
    <path d="m121.25,88.165c-23.994,0-46.981,10.228-63.069,28.062-2.574,2.854-2.574,7.192 0,10.047 16.088,17.834 39.075,28.062 63.069,28.062s46.981-10.228 63.069-28.062c2.574-2.854 2.574-7.192 0-10.047-16.088-17.834-39.075-28.062-63.069-28.062zm0,51.17c-17.379,0-34.118-6.519-46.913-18.085 12.795-11.566 29.534-18.085 46.913-18.085s34.118,6.519 46.913,18.085c-12.795,11.566-29.534,18.085-46.913,18.085z"/>
    <path d="m348.75,88.165c-23.994,0-46.981,10.228-63.069,28.062-2.574,2.854-2.574,7.192 0,10.047 16.088,17.834 39.075,28.062 63.069,28.062s46.981-10.228 63.069-28.062c2.574-2.854 2.574-7.192 0-10.047-16.088-17.834-39.075-28.062-63.069-28.062zm0,51.17c-17.379,0-34.118-6.519-46.913-18.085 12.795-11.566 29.534-18.085 46.913-18.085s34.118,6.519 46.913,18.085c-12.795,11.566-29.534,18.085-46.913,18.085z"/>
    <path d="M453.771,60.619c-2.075-3.586-6.662-4.81-10.248-2.736c-3.585,2.074-4.811,6.662-2.736,10.248   C450.085,84.203,455,102.571,455,121.25c0,58.587-47.663,106.25-106.25,106.25c-34.192,0-57.92-14.184-76.985-25.58   c-13.356-7.984-24.891-14.88-36.765-14.88s-23.408,6.896-36.765,14.88c-19.065,11.396-42.793,25.58-76.985,25.58   C62.663,227.5,15,179.837,15,121.25S62.663,15,121.25,15c34.192,0,57.92,14.184,76.985,25.58   c13.356,7.984,24.891,14.88,36.765,14.88s23.408-6.896,36.765-14.88C290.83,29.184,314.558,15,348.75,15   c28.38,0,55.062,11.052,75.131,31.12c2.928,2.928,7.677,2.929,10.606-0.001c2.929-2.929,2.929-7.678-0.001-10.606   C411.585,12.612,381.137,0,348.75,0c-38.334,0-65.122,16.013-84.682,27.705C252.62,34.55,242.732,40.46,235,40.46   s-17.62-5.91-29.068-12.755C186.372,16.013,159.584,0,121.25,0C54.393,0,0,54.393,0,121.25S54.393,242.5,121.25,242.5   c38.334,0,65.122-16.013,84.682-27.705C217.38,207.95,227.268,202.04,235,202.04s17.62,5.91,29.068,12.755   c19.56,11.692,46.348,27.705,84.682,27.705c66.857,0,121.25-54.393,121.25-121.25C470,99.938,464.388,78.972,453.771,60.619z"/>
    <path d="m67.5,247.065c-4.143,0-7.5,3.357-7.5,7.5v192.935c0,4.136-3.364,7.5-7.5,7.5s-7.5-3.364-7.5-7.5v-209.487c0-4.143-3.357-7.5-7.5-7.5s-7.5,3.357-7.5,7.5v209.487c0,12.406 10.094,22.5 22.5,22.5s22.5-10.094 22.5-22.5v-192.935c0-4.142-3.357-7.5-7.5-7.5z"/>
  </g>
</svg>
