<?xml version="1.0" encoding="iso-8859-1"?>
<!-- Generator: Adobe Illustrator 19.0.0, SVG Export Plug-In . SVG Version: 6.00 Build 0)  -->
<svg version="1.1" id="Capa_1" xmlns="http://www.w3.org/2000/svg" xmlns:xlink="http://www.w3.org/1999/xlink" x="0px" y="0px"
	 viewBox="0 0 512 512" style="enable-background:new 0 0 512 512;" xml:space="preserve">
<g>
	<g>
		<path d="M486.716,60.05H25.284C11.372,60.05,0,71.427,0,85.333v341.333c0,13.906,11.372,25.284,25.284,25.284h461.432
			c13.9,0,25.284-11.377,25.284-25.284V85.333C512,71.427,500.616,60.05,486.716,60.05z M493.037,426.666
			c0,3.426-2.901,6.321-6.321,6.321H25.284c-3.432,0-6.321-2.895-6.321-6.321V85.333c0-3.426,2.888-6.321,6.321-6.321h461.432
			c3.42,0,6.321,2.895,6.321,6.321V426.666z"/>
	</g>
</g>
<g>
	<g>
		<path d="M437.172,382.747L298.11,212.088c-1.789-2.213-4.456-3.477-7.294-3.496c-2.838-0.019-5.518,1.22-7.333,3.413
			L195.767,317.25l-36.927-42.218c-1.826-2.086-4.507-3.28-7.282-3.236c-2.775,0.044-5.404,1.308-7.175,3.457L55.889,382.711
			c-3.331,4.039-2.755,10.012,1.296,13.343c4.039,3.325,10.012,2.75,13.343-1.296l81.382-98.835l36.902,42.161
			c1.826,2.092,4.469,3.275,7.244,3.243c2.775-0.037,5.398-1.277,7.175-3.413l87.444-104.941l131.793,161.747
			c3.306,4.064,9.285,4.672,13.343,1.365S440.477,386.799,437.172,382.747z"/>
	</g>
</g>
<g>
	<g>
		<path d="M398.222,123.259c-24.444,0-44.247,19.81-44.247,44.247c0,24.438,19.804,44.247,44.247,44.247
			c24.444,0,44.247-19.81,44.247-44.247S422.665,123.259,398.222,123.259z M398.222,192.79c-13.95,0-25.284-11.34-25.284-25.284
			c0-13.944,11.333-25.284,25.284-25.284c13.937,0,25.284,11.34,25.284,25.284C423.506,181.45,412.16,192.79,398.222,192.79z"/>
	</g>
</g>
<g>
</g>
<g>
</g>
<g>
</g>
<g>
</g>
<g>
</g>
<g>
</g>
<g>
</g>
<g>
</g>
<g>
</g>
<g>
</g>
<g>
</g>
<g>
</g>
<g>
</g>
<g>
</g>
<g>
</g>
</svg>
