<?xml version="1.0" encoding="utf-8"?>
<svg version="1.2" baseProfile="tiny" id="Layer_1" xmlns="http://www.w3.org/2000/svg" xmlns:xlink="http://www.w3.org/1999/xlink"
	 x="0px" y="0px" viewBox="0 0 24 24" xml:space="preserve">
<path fill="#F8F8F8" stroke="#1C75BC" stroke-width="2" stroke-linejoin="round" stroke-miterlimit="10" d="M20.2,7H13
	c0,0-1.4-2-2.5-2H3.7C2.6,5,2,5.5,2,6.5v2.1c0,0,0,0,0,0c0,0,0,0,0,0v8.7C2,18.3,2.5,19,3.5,19h16.7c1,0,1.8-0.7,1.8-1.7V8.7
	C22,7.7,21.3,7,20.2,7z"/>
<polyline fill="none" stroke="#1C75BC" stroke-linejoin="round" stroke-miterlimit="10" points="19,16.5 4.5,16.5 4.5,10 "/>
<g>
	<polygon fill="#1C75BC" points="15.4,11.1 13.8,12.7 10.8,9.5 6,14.5 19,14.5 	"/>
</g>
</svg>
