<?xml version="1.0" encoding="utf-8"?>
<svg version="1.2" baseProfile="tiny" id="Layer_1" xmlns="http://www.w3.org/2000/svg" xmlns:xlink="http://www.w3.org/1999/xlink"
	 x="0px" y="0px" viewBox="0 0 24 24" xml:space="preserve">
<path fill="#1C75BC" d="M22,12.3v-0.6c0-0.4-0.3-0.8-0.7-0.9l-2.1-0.7c-0.2-0.1-0.4-0.2-0.5-0.5c-0.1-0.2-0.2-0.5-0.3-0.7
	c-0.1-0.2-0.1-0.5,0-0.7l0.9-1.8c0.2-0.4,0.1-0.8-0.2-1.1L18.6,5c-0.3-0.3-0.7-0.3-1.1-0.2l-1.8,0.9c-0.2,0.1-0.5,0.1-0.7,0
	c-0.2-0.2-0.5-0.3-0.8-0.5c-0.2-0.1-0.3-0.2-0.4-0.4l-0.7-2.1C13.1,2.3,12.7,2,12.3,2h-0.6c-0.4,0-0.8,0.3-0.9,0.7l-0.6,2.1
	c-0.1,0.2-0.2,0.4-0.5,0.5C9.4,5.3,9.2,5.5,8.9,5.6c-0.2,0.1-0.5,0.1-0.7,0L6.5,4.8C6.1,4.6,5.7,4.7,5.4,5L5,5.5
	C4.7,5.8,4.6,6.2,4.8,6.6l0.9,1.7c0.1,0.2,0.1,0.5,0,0.7C5.5,9.3,5.3,9.6,5.2,9.9c-0.1,0.2-0.2,0.4-0.4,0.4l-2.1,0.6
	C2.3,11,2,11.4,2,11.8v0.6c0,0.4,0.3,0.8,0.7,0.9L4.8,14c0.2,0.1,0.4,0.2,0.5,0.4c0.1,0.3,0.3,0.5,0.4,0.7c0.1,0.2,0.1,0.5,0,0.7
	l-0.8,1.8C4.6,18,4.7,18.4,5,18.7l0.5,0.5c0.3,0.3,0.7,0.3,1.1,0.2l1.9-0.9c0.2-0.1,0.5-0.1,0.7,0c0.2,0.1,0.5,0.3,0.7,0.4
	c0.2,0.1,0.3,0.3,0.4,0.5l0.6,2c0.1,0.4,0.5,0.7,0.9,0.7h0.6c0.4,0,0.8-0.3,0.9-0.7l0.7-2.1c0.1-0.2,0.2-0.4,0.4-0.5
	c0.2-0.1,0.4-0.2,0.6-0.3c0.2-0.1,0.5-0.1,0.7,0l1.8,0.9c0.4,0.2,0.8,0.1,1.1-0.2l0.5-0.5c0.3-0.3,0.3-0.7,0.2-1.1l-0.9-1.8
	c-0.1-0.2-0.1-0.5,0-0.7c0.1-0.2,0.3-0.5,0.4-0.7c0.1-0.2,0.3-0.3,0.5-0.4l2.1-0.7C21.7,13.1,22,12.7,22,12.3z M12,16.1
	c-2.3,0-4.1-1.8-4.1-4.1c0-2.3,1.8-4.1,4.1-4.1s4.1,1.8,4.1,4.1C16.1,14.3,14.3,16.1,12,16.1z"/>
</svg>
